<?xml version="1.0" encoding="UTF-8" standalone="no"?> <svg id="Layer_1" data-name="Layer 1" xmlns="http://www.w3.org/2000/svg" viewBox="0 0 64 64"><path d="M45.067,30.384A13.067,13.067,0,1,0,26.4,42.176v5.941a5.6,5.6,0,0,0,5.6,5.6h0a5.6,5.6,0,0,0,5.6-5.6V42.176A13.054,13.054,0,0,0,45.067,30.384Z" style="fill:#ffd04d"/><path d="M37.6,44.387v3.73a5.6,5.6,0,1,1-11.2,0v-3.73Z" style="fill:#687f99"/><path d="M18.567,62.666l-.634-1.9c4.161-1.389,9.106-2.612,13.887-3.8,4.7-1.163,9.563-2.365,13.615-3.712C52.642,50.846,56,48.405,56,45.579c0-2.627-3.054-5-9.337-7.246l.674-1.883C51.915,38.089,58,40.818,58,45.579c0,4.947-6.377,7.718-11.932,9.58-4.129,1.372-9.029,2.584-13.768,3.757S22.652,61.3,18.567,62.666Z" style="fill:#a0bee6"/><rect x="42.809" y="17.175" width="2.8" height="2" transform="translate(0.097 36.584) rotate(-45)" style="fill:#ffde73"/><rect x="31" y="11.717" width="2" height="2.8" style="fill:#ffde73"/><path d="M39.091,32.142l-.434-.239a.7.7,0,0,1-.37-.7,5.647,5.647,0,0,0,0-1.642.7.7,0,0,1,.37-.7l.434-.24a.7.7,0,0,0,.275-.98l-1.2-1.991a.768.768,0,0,0-1.024-.262l-.44.242a.8.8,0,0,1-.854-.07,6.393,6.393,0,0,0-1.4-.779.737.737,0,0,1-.489-.671v-.481a.734.734,0,0,0-.75-.717H30.8a.734.734,0,0,0-.75.717v.481a.737.737,0,0,1-.489.671,6.393,6.393,0,0,0-1.4.779.8.8,0,0,1-.854.07l-.44-.242a.768.768,0,0,0-1.024.262l-1.2,1.991a.7.7,0,0,0,.275.98l.434.24a.7.7,0,0,1,.37.7,5.647,5.647,0,0,0,0,1.642.7.7,0,0,1-.37.7l-.434.239a.7.7,0,0,0-.275.98l1.2,1.991a.769.769,0,0,0,1.024.263l.44-.243a.8.8,0,0,1,.854.07,6.393,6.393,0,0,0,1.4.779.737.737,0,0,1,.489.671v.481a.734.734,0,0,0,.75.717H33.2a.734.734,0,0,0,.75-.717v-.481a.737.737,0,0,1,.489-.671,6.393,6.393,0,0,0,1.4-.779.8.8,0,0,1,.854-.07l.44.243a.769.769,0,0,0,1.024-.263l1.2-1.991A.7.7,0,0,0,39.091,32.142ZM32,32.717a2.333,2.333,0,1,1,2.333-2.333A2.332,2.332,0,0,1,32,32.717Z" style="fill:#7083a6"/><rect x="18.791" y="16.775" width="2" height="2.8" transform="translate(-7.055 19.317) rotate(-45)" style="fill:#ffde73"/><path d="M50.676,3.1l-7-1.768L44.5,4.068C40.646,5.294,36.17,6.4,31.823,7.48c-4.783,1.183-9.728,2.406-13.889,3.8C12.377,13.127,6,15.887,6,20.832c0,4.569,5.505,7.186,9.646,8.757l.708-1.87C10.733,25.587,8,23.334,8,20.832c0-2.784,3.456-5.289,10.567-7.659C22.653,11.809,27.559,10.6,32.3,9.422c4.368-1.081,8.865-2.2,12.775-3.439l.743,2.464Z" style="fill:#a0bee6"/><path d="M37.6,47.717v.4a5.626,5.626,0,0,1-.23,1.6H26.63a5.626,5.626,0,0,1-.23-1.6v-.4Z" style="fill:#7089a6"/><circle cx="32" cy="30.384" r="2.333" style="fill:#e5edf2"/></svg>